<svg xmlns="http://www.w3.org/2000/svg" data-name="Layer 1" viewBox="0 0 219.52 293.9">
  <path fill="#231f20" d="M226.66,200.45v-.95c0-.93-.07-1.87-.12-2.8a108.93,108.93,0,0,0-7.39-34.79A447.62,447.62,0,0,1,204.36,119a91.32,91.32,0,0,0-33-48.09l-1-.73.2,1.22c.33,2.06,3.18,20.61,1.61,36.85-.62,6.37-1.84,11.57-3.65,15.48a60.11,60.11,0,0,0-5.93-21.15,71.78,71.78,0,0,0-6.82-11.44,81.4,81.4,0,0,0-7.44-8.8,31.45,31.45,0,0,1-5.75-8.42,55.12,55.12,0,0,1-4.68-18.32c-2.26-22.2,4.5-47.07,4.57-47.32l.2-.73-.76.11c-.48.07-48.85,7.64-66.29,55.23C71.15,75,69,88.71,69.29,103.73c0,2.46.13,5,.29,7.43a20.18,20.18,0,0,1-4.76-5c-3.16-4.43-7.35-12.94-9.38-28.3l-.12-1-.72.67a90.73,90.73,0,0,0-24.93,40.79c-3.92,13.57-8.82,27.81-15,43.53a108.49,108.49,0,0,0-6.41,24.37c-.49,3.43-.82,6.94-1,10.42,0,.93-.08,1.86-.11,2.8v.91c0,.64,0,1.27,0,1.93a76.91,76.91,0,0,0,1.62,15.3c6.76,32.79,32.81,61.18,54.94,76.81l.58-.82c-13.93-9.91-21.26-25.83-26.1-38.6-2.44-6.44-2.82-14.14-2.79-17.45a26.22,26.22,0,0,0,1.66,5.21c3.74,6.81,3.64,15.44,25.24,35.7A88,88,0,0,0,76.7,289.58l0,0s2.51,1.77,2.61,4.22-1.37,2.54-1.8,3.62-.69,4.12,3,4,3.52-1.94,3.55-2.94c.06-2.18-2.27-1.34-2.22-3.11,0-1.42.12-2.32.52-2.74a66.74,66.74,0,0,0,24.45,6.58,3.42,3.42,0,0,0,.73.5c3.25,1.61,7.21,2.41,9.06.91a5.16,5.16,0,0,0,1.09-1.25,129.85,129.85,0,0,0,13.44-1.35,69.15,69.15,0,0,0,8.25-1.78h0s-.24,1.05,4.37,1.33,4.76-2.37,9.3-6.79l.05,0c16-8.49,29.13-23.19,37.72-41.76,4.75-10.26,7.22-18.06,8.46-23.77.63,6,1,19.55-.33,25.29-2.61,11.4-12.92,29.56-25.69,40.22l.61.79c29.48-21,49-51,52.32-80.33a85.48,85.48,0,0,0,.52-8.89Q226.69,201.38,226.66,200.45ZM72,269.56V281c-15.24-11.1-25.23-28.16-25.23-28.16l2.71-3S55.1,258.15,73,260.05A46,46,0,0,0,72,269.56Zm36.19,23.86a75.88,75.88,0,0,1-22.34-5.36c0-.28,0-.46,0-.46l0,0a49.55,49.55,0,0,0-.49-11.68,135.25,135.25,0,0,1-1.23-15.65c6.08.16,13.22,0,21.61-.63a60,60,0,0,1,4.37,16.28A45.45,45.45,0,0,1,108.2,293.42Zm31.72-2.87a57.38,57.38,0,0,1-15,2.9c-2,.16-4,.26-6.16.31a81,81,0,0,0,.83-16.77A63.12,63.12,0,0,0,116,258.68c1.92-.2,3.88-.43,5.91-.68,6.31-.78,12-1.53,17.06-2.26a52,52,0,0,1,3.77,18.79A45.66,45.66,0,0,1,139.92,290.55Zm27.75-18c-.84.67-1.71,1.35-2.62,2-4.91,3.6-8.83,6.58-12.39,9a104.91,104.91,0,0,0,1-13.54,57,57,0,0,0-2.5-16.22c6.21-1,11.24-2,15.3-2.82.51,1.94,2,7.82,2,11.29C168.44,265.08,168,269.68,167.67,272.58Zm17.4-22.8a47,47,0,0,1-9.83,15.72,44.58,44.58,0,0,0-.07-9,45.07,45.07,0,0,0-1.81-7.05c9.62-2.5,10.16-4,10.16-4S185.35,249,185.07,249.78Z" transform="translate(-7 -8)"/>
</svg>
