<svg id="Layer_1" data-name="Layer 1" xmlns="http://www.w3.org/2000/svg" viewBox="0 0 256 464"><defs><style>.cls-1{fill:#231f20;}</style></defs><title>shadow_crop_reverse</title><path class="cls-1" d="M162.71,257.44a56.46,56.46,0,0,1,2.51,16.22,105,105,0,0,1-1,13.54c3.55-2.46,7.47-5.45,12.38-9,.91-.67,1.78-1.35,2.63-2,.32-2.9.77-7.5.77-10.22,0-3.47-1.47-9.36-2-11.3C174,255.48,168.93,256.42,162.71,257.44Z" transform="translate(1.22 -0.56)"/><path class="cls-1" d="M133.46,261.56c-2,.25-4,.47-5.9.68a63.81,63.81,0,0,1,3.58,18.31,81.07,81.07,0,0,1-.83,16.77c2.11-.05,4.17-.16,6.15-.32a56.81,56.81,0,0,0,15-2.9,45.61,45.61,0,0,0,2.82-16,52.25,52.25,0,0,0-3.76-18.78C145.44,260,139.78,260.78,133.46,261.56Z" transform="translate(1.22 -0.56)"/><path class="cls-1" d="M117.28,263.17c-8.38.63-15.53.79-21.61.64a139.75,139.75,0,0,0,1.23,15.64,49,49,0,0,1,.49,11.68l0,0s0,.19,0,.46A75.49,75.49,0,0,0,119.76,297a45.48,45.48,0,0,0,1.89-17.52A60.09,60.09,0,0,0,117.28,263.17Z" transform="translate(1.22 -0.56)"/><path class="cls-1" d="M184.92,253a47,47,0,0,1,1.8,7.05,44.58,44.58,0,0,1,.07,9,46.75,46.75,0,0,0,9.83-15.71c.28-.82-1.54-4.3-1.54-4.3S194.53,250.51,184.92,253Z" transform="translate(1.22 -0.56)"/><path class="cls-1" d="M61.05,253.39l-2.71,3s10,17.07,25.23,28.16V273.11a46.71,46.71,0,0,1,1-9.5C66.65,261.71,61.05,253.39,61.05,253.39Z" transform="translate(1.22 -0.56)"/><path class="cls-1" d="M-1.22.56v464h256V.56Zm239,214.23c-3.29,29.31-22.84,59.34-52.32,80.33l-.61-.79c12.76-10.66,23.08-28.83,25.68-40.22,1.31-5.74,1-19.32.34-25.3a117.38,117.38,0,0,1-8.46,23.77c-8.59,18.58-21.69,33.28-37.73,41.76l0,.05c-4.53,4.43-4.68,7.08-9.29,6.8s-4.38-1.33-4.38-1.33l0,0a68.34,68.34,0,0,1-8.25,1.79A129.23,129.23,0,0,1,129.24,303a5.21,5.21,0,0,1-1.09,1.26c-1.84,1.49-5.8.69-9.05-.92a2.66,2.66,0,0,1-.73-.5,66.63,66.63,0,0,1-24.46-6.57c-.39.41-.47,1.32-.51,2.73-.06,1.77,2.27.94,2.21,3.12,0,1,.16,2.84-3.55,2.93s-3.44-2.93-3-4,1.9-1.18,1.8-3.63-2.62-4.22-2.62-4.22h0a87.66,87.66,0,0,1-14.38-11.09c-21.6-20.26-21.5-28.88-25.24-35.69A26.31,26.31,0,0,1,47,241.15c0,3.31.36,11,2.8,17.45,4.83,12.76,12.17,28.69,26.09,38.6l-.57.82c-22.13-15.64-48.18-44-54.94-76.81a77.78,77.78,0,0,1-1.63-15.31c0-.65,0-1.29,0-1.93l0-.91c0-.93.06-1.86.1-2.79.16-3.49.49-7,1-10.42a109.57,109.57,0,0,1,6.41-24.37c6.16-15.72,11.06-30,15-43.54A90.61,90.61,0,0,1,66.16,81.16l.71-.67.13,1c2,15.36,6.21,23.87,9.38,28.3a20,20,0,0,0,4.76,5c-.16-2.48-.26-5-.29-7.43-.27-15,1.85-28.76,6.3-40.82,17.44-47.6,65.8-55.17,66.29-55.24l.76-.11-.21.74c-.07.25-6.83,25.12-4.57,47.31A55.42,55.42,0,0,0,154.1,77.5a31.42,31.42,0,0,0,5.76,8.41,81.3,81.3,0,0,1,7.43,8.8,72.6,72.6,0,0,1,6.83,11.44A60.11,60.11,0,0,1,180,127.31c1.81-3.91,3-9.11,3.65-15.49C185.27,95.59,182.41,77,182.08,75l-.19-1.22,1,.73a91.28,91.28,0,0,1,33,48.09,451.32,451.32,0,0,0,14.78,42.89,108.24,108.24,0,0,1,5.12,17.08,109.58,109.58,0,0,1,2.28,17.72c0,.93.09,1.86.11,2.8l0,.94c0,.63,0,1.26,0,1.9A82.79,82.79,0,0,1,237.73,214.79Z" transform="translate(1.22 -0.56)"/></svg>