<svg id="Layer_1" data-name="Layer 1" xmlns="http://www.w3.org/2000/svg" xmlns:xlink="http://www.w3.org/1999/xlink" viewBox="0 0 218.52 302.03"><defs><style>.cls-1{fill:#231f20;}.cls-2{fill:url(#linear-gradient);}.cls-3{fill:#9b1313;}.cls-4{fill:#fff;}.cls-5{fill:url(#linear-gradient-2);}</style><linearGradient id="linear-gradient" x1="132.39" y1="17.21" x2="132.39" y2="313.53" gradientUnits="userSpaceOnUse"><stop offset="0.3" stop-color="#f7941d"/><stop offset="0.89" stop-color="red"/></linearGradient><linearGradient id="linear-gradient-2" x1="131.54" y1="314.33" x2="131.54" y2="225.28" gradientUnits="userSpaceOnUse"><stop offset="0.15" stop-color="#a7a9ac"/><stop offset="0.44" stop-color="#fff"/></linearGradient></defs><title>InfernalMisfits_NoOutline</title><ellipse class="cls-1" cx="109.24" cy="210.48" rx="93.93" ry="91.56"/><path class="cls-2" d="M241.61,211.18c0-.93-.06-1.86-.11-2.79a108.61,108.61,0,0,0-7.37-34.63c-5.52-14.11-10.69-28.36-14.79-42.94A90.45,90.45,0,0,0,186.48,83c.11.72,3.25,20.15,1.62,37-.64,6.61-2,12.83-4.58,17.37,0,0,.26-9.9-6-22.87a75.3,75.3,0,0,0-14.16-20.11c-6.54-6.71-9.55-16.61-10.58-27-2.29-22.56,4.59-47.5,4.59-47.5s-48.36,7-65.9,54.91C87.4,85.92,85,99.33,85.25,115.39c0,2.72.15,5.5.36,8.36,0,0-2.6-1.18-5.74-5.59-3.42-4.8-7.47-13.43-9.46-28.53a90.23,90.23,0,0,0-24.8,40.56c-4.26,14.77-9.38,29.27-15,43.58a108.53,108.53,0,0,0-7.35,34.62c0,.93-.08,1.86-.11,2.79s0,1.87,0,2.83c.14,36.71,28.46,72,56.32,91.71h0c-14.74-10.5-21.94-27.39-26.27-38.84-3.08-8.13-2.88-17.79-2.79-19,3.18,3.45,11.35,17.76,11.45,18.2s19.36,10.4,19.36,10.4l40.55-1.4c3,.26,6,.4,9.24.4a94.84,94.84,0,0,0,30-4.59l20.89-2.63,20.58-7.74,12.4-26.07c.81,3.42,1.55,21.06,0,27.85C212.2,274,201.65,292.27,189,302.82c27.73-19.73,52.48-52.27,52.63-88.81C241.65,213.05,241.62,212.12,241.61,211.18ZM91.3,226.28c-17.1,0-31-12.62-31-28.2s13.86-28.19,31-28.19,31,12.62,31,28.19S108.4,226.28,91.3,226.28Zm83.8-10.4A26,26,0,1,1,201,189.93,26,26,0,0,1,175.1,215.88Z" transform="translate(-23.13 -19.84)"/><path class="cls-3" d="M210.24,248.64S193.17,267.79,144,269.71s-52.53,3.05-60.63,1.46-17.44-5.17-18.12-6-3.38,1.71-3.38,1.71,17.5,30.35,71.44,26.86a97.78,97.78,0,0,0,9.94-1.16c12.4-1.86,31.7-7.18,39.18-12.22C206.12,266,210.24,248.64,210.24,248.64Z" transform="translate(-23.13 -19.84)"/><ellipse class="cls-3" cx="69.33" cy="181.54" rx="23.86" ry="21.84"/><ellipse class="cls-3" cx="158.24" cy="170.08" rx="19.68" ry="19.86"/><path class="cls-4" d="M119,194.6a6,6,0,0,0-2.57-1.88c-3.8-9.74-12.19-16.61-25.15-17.61a24.79,24.79,0,0,0-8.57.86c-2.08-.86-3.82-.92-4.92-.23-1.36.86-1.78,1.78-1.52,2.88-8.37,4.7-14.41,13.49-13.55,22.95a27.19,27.19,0,0,0,.58,3.54l-.27.24s-2.88,1.87-1.44,7.33,3.44,7.18,2.94,9.31-.37,4.26,1.76,3.67,1.13-4.33,1.13-4.33,1.65-2.49,1.06-4.86c5.81,8.27,15.19,14.09,24.66,12.48,1.33-.23,2.58-.49,3.79-.75h0s3.32,1.75,3.13,5,.28,4.3-1,6.09-.84,4.3,1.79,4.5a2.7,2.7,0,0,0,3.19-3.1c-.29-1.2-2-2.93-1.79-4.71s2.47-5.28,3.35-9.49a7.35,7.35,0,0,0,.24-1c10.83-4.57,13.83-12.1,12.82-23.21-.06-.67-.14-1.34-.24-2,.72.37,1.14.58,1.32.42C120.58,200,120.55,196.79,119,194.6Zm-47.66,4.8a20.08,20.08,0,0,1,9.16-15,94.38,94.38,0,0,1,6.95,8.25A59.43,59.43,0,0,0,71.38,199.4Zm23.45,21.13c-8.39.6-16.54-4.43-20.68-11a46,46,0,0,1,17.51-10.13c3.59,7.5,3.66,15.09,4.2,21C95.52,220.45,95.19,220.51,94.83,220.53Zm-5.12-39.48a22.79,22.79,0,0,1,2.63-.16A23.89,23.89,0,0,1,112,191.47a62.91,62.91,0,0,0-15.23-.22A42.63,42.63,0,0,0,89.71,181.05Zm15.42,36.57a96.13,96.13,0,0,0-5.56-20.06c7.14-1.09,12-.12,15.18,1a15.76,15.76,0,0,1,.15,2.07A19,19,0,0,1,105.13,217.62Z" transform="translate(-23.13 -19.84)"/><path class="cls-4" d="M204.54,191.91a4.78,4.78,0,0,0-1.42-2.8c-.53-10.08-6.06-18.41-17.26-21.61a19,19,0,0,0-4.74-.7c-2.51-2.17-4.9-3-6.49-2.56-2.29.67-2.53,2-1.67,4-7.32,2.71-13.45,9.06-14.38,17l0,.25c-.68.29-1.06.47-1.06.47s-4.78,3.42-3,7.11c1.32,2.69,3.35,2.88,5,2.37,1.76,6.28,5.59,12.07,10.62,15.2a17,17,0,0,0,2.23,1.17c3.24,2.52,4.8,4.62,4.32,5.71s-2.21,2.67-.59,4.28,4.46.5,5.77-1.27-1.57-1.37-1.59-3.06.71-2,1.68-2c.59,0,1-.4,1.71.72,0,.1.08.2.13.29a6.92,6.92,0,0,0,.66,1h0c.3.39.56,1.72.88,2l1.42,1.3a4.62,4.62,0,0,0,3.44.2c3.3-1.62,2.2-9.71,3.78-10.64h0c4.83-2.51,7.34-6.72,8.51-12.61C203.4,197.2,204.72,194.31,204.54,191.91ZM176,173.47a82.42,82.42,0,0,1,4.41,7.65,49,49,0,0,0-13.95,1.68A17.65,17.65,0,0,1,176,173.47Zm-10.26,18.68a41,41,0,0,1,17.64-3.53c1.77,6.65.79,12.73,0,17.78a21.8,21.8,0,0,1-2.64-.15C173.45,205.35,167.46,198.92,165.78,192.15Zm27.38,11.45a84.48,84.48,0,0,0-1.22-13.67,17.09,17.09,0,0,1,7.78,4.63A16.68,16.68,0,0,1,193.16,203.6Zm-2.76-20.74A40.07,40.07,0,0,0,186,172.59a19,19,0,0,1,14.17,14.16A39.5,39.5,0,0,0,190.4,182.86Z" transform="translate(-23.13 -19.84)"/><path class="cls-5" d="M215.24,225.28s-6.46,21.41-12.47,25.56a50,50,0,0,1-15.66,7.64c-.29-.64-1-1.41-2.76-1-2.81.59-3.74,1.36-4,2.9-4.57,1.1-10.13,2.15-16.92,3.12a4.13,4.13,0,0,0-4.39-1.28c-3.3.82-2.18,1.77-3.23,2.25-5.1.59-10.78,1.13-17.15,1.6-3.53.27-6.85.51-10,.72,0,0-1.93-2.5-7.27-2.05s-2.52,1.12-4,2.78c-7,.42-12.89.67-17.82.77,0,0,1.58-3.29-3.71-3.72a5.87,5.87,0,0,0-6.24,3.66c-10.73-.44-15.47-2.25-21-5.44C60.11,257.89,48,240,47.54,235.66c0,0,2.81,16.71,4.63,20,3.74,6.81,3.64,15.43,25.24,35.69a87,87,0,0,0,14.38,11.08l0,0s2.51,1.77,2.62,4.22-1.38,2.54-1.8,3.63-.69,4.11,3,4,3.52-1.93,3.54-2.94c.07-2.17-2.27-1.34-2.21-3.11,0-1.41.12-2.32.51-2.74a66.65,66.65,0,0,0,24.46,6.58,3.19,3.19,0,0,0,.73.5c3.25,1.61,7.21,2.41,9.05.91a5.16,5.16,0,0,0,1.09-1.25,126.63,126.63,0,0,0,13.44-1.35,66.45,66.45,0,0,0,8.25-1.78h0s-.24,1.06,4.37,1.33,4.76-2.36,9.3-6.79l0-.05c16-8.48,29.14-23.18,37.73-41.76C218.14,235.41,215.24,225.28,215.24,225.28ZM87.1,284.42v11.43c-15.24-11.09-25.23-28.16-25.23-28.16l2.71-3s5.61,8.31,23.47,10.21A46.82,46.82,0,0,0,87.1,284.42Zm33.72-9.94a60.52,60.52,0,0,1,4.36,16.28,45.48,45.48,0,0,1-1.89,17.52A75.81,75.81,0,0,1,101,302.92v-.46l0,0a49,49,0,0,0-.49-11.68,137.17,137.17,0,0,1-1.22-15.64C105.28,275.27,112.43,275.11,120.82,274.48ZM140,308.31c-2,.16-4,.27-6.15.31a81,81,0,0,0,.83-16.76,63.89,63.89,0,0,0-3.58-18.32q2.86-.3,5.9-.68c6.32-.78,12-1.53,17.07-2.26a52.32,52.32,0,0,1,3.76,18.79,46,46,0,0,1-2.81,16A57.38,57.38,0,0,1,140,308.31Zm42.77-20.87c-.85.68-1.71,1.35-2.63,2-4.91,3.6-8.83,6.58-12.38,9a104.91,104.91,0,0,0,1-13.54,56.38,56.38,0,0,0-2.51-16.21c6.22-1,11.25-2,15.31-2.83.51,1.94,2,7.82,2,11.3C183.53,279.94,183.08,284.54,182.76,287.44Zm17.39-22.8a46.68,46.68,0,0,1-9.83,15.72,43.85,43.85,0,0,0-.07-9,45.48,45.48,0,0,0-1.8-7.05c9.61-2.5,10.16-4,10.16-4S200.44,263.82,200.15,264.64Z" transform="translate(-23.13 -19.84)"/></svg>